# xmcd
#
# Track frame offsets: 
#        150
#        5953
#        21576
#        36571
#        47691
#        64629
#        76831
#        89903
#        101001
#        112187
#        126746
#        137426
#
# Disc length: 2009 seconds
#
# Revision: 4
# Processed by: cddbd v1.5.2PL0 Copyright (c) Steve Scherf et al.
# Submitted via: ExactAudioCopy v0.95b4
#
DISCID=b407d70c
DTITLE=America - Holiday
DYEAR=1974
DGENRE=Country Rock
TTITLE0=Miniature
TTITLE1=Tin Man
TTITLE2=Another Try
TTITLE3=Lonely People
TTITLE4=Glad To See You
TTITLE5=Mad Dog
TTITLE6=Hollywood
TTITLE7=Baby It's Up To You
TTITLE8=You
TTITLE9=Old Man Took
TTITLE10=What Does It Matter
TTITLE11=In The Country
EXTD=ID3G:   2
EXTT0=
EXTT1=
EXTT2=
EXTT3=
EXTT4=
EXTT5=
EXTT6=
EXTT7=
EXTT8=
EXTT9=
EXTT10=
EXTT11=
PLAYORDER=
